<?xml version="1.0" encoding="UTF-8" standalone="no"?>
<!-- Created with Inkscape (http://www.inkscape.org/) -->

<svg
   version="1.1"
   id="svg1"
   width="840"
   height="466.66666"
   viewBox="0 0 840 466.66666"
   sodipodi:docname="pydata-logo-banner.svg"
   inkscape:version="1.4.2 (ebf0e940d0, 2025-05-08)"
   xmlns:inkscape="http://www.inkscape.org/namespaces/inkscape"
   xmlns:sodipodi="http://sodipodi.sourceforge.net/DTD/sodipodi-0.dtd"
   xmlns="http://www.w3.org/2000/svg"
   xmlns:svg="http://www.w3.org/2000/svg">
  <defs
     id="defs1" />
  <sodipodi:namedview
     id="namedview1"
     pagecolor="#ffffff"
     bordercolor="#000000"
     borderopacity="0.25"
     inkscape:showpageshadow="2"
     inkscape:pageopacity="0.0"
     inkscape:pagecheckerboard="0"
     inkscape:deskcolor="#d1d1d1"
     inkscape:zoom="0.90240294"
     inkscape:cx="472.07293"
     inkscape:cy="367.9066"
     inkscape:window-width="1920"
     inkscape:window-height="1011"
     inkscape:window-x="0"
     inkscape:window-y="0"
     inkscape:window-maximized="1"
     inkscape:current-layer="g1" />
  <g
     inkscape:groupmode="layer"
     inkscape:label="Image"
     id="g1"
     style="display:inline">
    <path
       style="display:inline;fill:#459db9;stroke-width:1.75748;stroke-dasharray:10.5449, 3.51496;fill-opacity:1"
       d="m 34.281716,353.78731 v -74.2444 l 69.542914,36.43657 v 74.4403 z"
       id="path9" />
    <path
       style="display:inline;fill:#459db9;stroke-width:1.75748;stroke-dasharray:10.5449, 3.51496;fill-opacity:1"
       d="m 103.53078,305.49907 -0.0979,-73.36288 -69.151124,-36.04477 0.195896,73.85261 67.583958,35.0653"
       id="path10" />
    <path
       style="display:inline;fill:#667b83;fill-opacity:1;stroke-width:1.75748;stroke-dasharray:10.5449, 3.51496"
       d="m 113.03172,305.79291 68.56343,-35.84888 0.58769,-73.46082 -69.15112,36.24067 z"
       id="path11" />
    <path
       style="display:inline;fill:#ee9041;stroke-width:1.75748;stroke-dasharray:10.5449, 3.51496;fill-opacity:1"
       d="m 39.47793,188.80147 68.28989,36.01495 70.09064,-35.80717 -68.98952,-36.01485 z"
       id="path12" />
    <path
       style="display:inline;fill:#ee9041;stroke-width:1.75748;stroke-dasharray:10.5449, 3.51496;fill-opacity:1"
       d="m 113.12966,145.74627 -0.0979,-74.048509 69.54291,36.632459 -0.58769,73.21596 z"
       id="path13" />
    <path
       id="path14"
       style="display:inline;fill:#459db9;stroke-width:1.75748;stroke-dasharray:10.5449, 3.51496;fill-opacity:1"
       d="m 211.24219,187.9707 0.27734,120.37305 7.29492,-0.004 0.65715,-44.7796 c 0,0 29.07474,1.83478 43.42098,-0.0817 2.4805,-0.33136 4.869,-1.1806 7.24804,-1.95704 3.45819,-1.12863 6.91474,-2.32589 10.18555,-3.91796 2.80434,-1.36502 5.65465,-2.78104 8.03125,-4.80079 2.70128,-2.29568 5.03289,-5.08948 6.85742,-8.1289 1.80986,-3.01498 3.13711,-6.36623 3.91797,-9.79492 0.64668,-2.83949 0.58368,-5.8046 0.58789,-8.7168 0.004,-3.04277 -0.0562,-6.11342 -0.58789,-9.10938 -0.46402,-2.61452 -1.08783,-5.25498 -2.2539,-7.64062 -1.50009,-3.069 -3.61787,-5.85336 -5.97461,-8.32617 -2.50113,-2.62431 -5.38273,-4.94375 -8.52149,-6.75782 -3.67961,-2.12667 -7.75661,-3.56378 -11.85156,-4.70117 -2.43657,-0.67677 -7.48437,-1.24023 -7.48437,-1.24023 z m 8.16015,7.92578 c 0,0 43.59865,0.33389 46.14034,0.9595 2.21751,0.54582 4.77222,1.12645 6.99443,2.12645 3.58144,1.61165 7.02683,3.64634 10.04101,6.16406 2.02022,1.68747 3.8844,3.64474 5.26368,5.88672 1.26039,2.04874 2.08726,4.37604 2.63281,6.71875 0.65358,2.80659 0.78508,5.73339 0.72636,8.61448 -0.0435,2.13164 -0.30357,4.27217 -0.79667,6.34646 -0.66869,2.81293 -1.41756,5.69445 -2.90821,8.17188 -1.53329,2.54829 -3.7795,4.63053 -6.02539,6.58007 -2.34528,2.03582 -4.88277,3.93011 -7.6875,5.26368 -2.86987,1.36454 -5.97886,2.40284 -9.14258,2.70117 -14.2549,1.34418 -44.89526,0.80174 -44.89526,0.80174 z"
       sodipodi:nodetypes="ccccaaaaaaaaaaaacccsaaaaaaaaascc" />
    <path
       style="display:inline;fill:#459db9;stroke-width:1.75748;stroke-dasharray:10.5449, 3.51496;fill-opacity:1"
       d="m 319.42494,332.93054 2.07778,-6.1641 c 0,0 4.21902,1.48105 6.37188,2.07779 1.66887,0.46259 3.5073,1.03323 5.06375,1.16205 1.8944,0.15679 5.55354,-0.17615 8.30334,-0.53871 1.05037,-0.13849 2.1336,-0.22833 3.11667,-0.62334 1.11723,-0.44891 2.13782,-1.15038 3.04742,-1.93927 2.25115,-1.95241 4.13027,-4.33146 5.8178,-6.78743 2.39261,-3.48212 6.02558,-11.15078 6.02558,-11.15078 l -42.53507,-87.16404 8.76632,-0.049 37.5434,78.65947 32.27494,-78.50568 7.99947,0.0346 c 0,0 -24.36397,64.36288 -39.7651,95.06578 -1.68337,3.35588 -3.48469,6.68777 -5.72995,9.69683 -1.11909,1.49978 -2.41132,2.88196 -3.81996,4.1138 -1.53426,1.34169 -3.23048,2.50662 -4.99534,3.52612 -1.65072,0.95356 -3.36439,1.85489 -5.19123,2.39972 -1.39159,0.41502 -2.86273,0.51406 -4.3097,0.63666 -2.18024,0.18473 -4.38723,0.38302 -6.5625,0.14693 -1.85398,-0.20122 -3.66139,-0.74947 -5.4361,-1.3223 -2.7608,-0.89111 -8.0634,-3.27515 -8.0634,-3.27515 z"
       id="path15"
       sodipodi:nodetypes="ccasaaaaccccccaaaaaaaacc" />
    <path
       id="path16"
       style="display:inline;fill:#ee9041;fill-opacity:1;stroke-width:1.75748;stroke-dasharray:10.5449, 3.51496"
       d="m 427.95508,191.22461 v 120.51172 l 46.69922,-0.16406 3.96679,-0.39258 7.44532,-0.78321 8.96093,-3.13476 8.71875,-4.11328 7.29688,-4.94727 7.05078,-6.80664 c 0,0 0.66623,-0.12386 4.65371,-6.46385 3.1001,-4.92907 4.01621,-6.61232 4.01621,-6.61232 0,0 2.21669,-3.5027 3.50241,-8.13432 1.37536,-4.95452 2.12845,-8.81099 2.12845,-8.81099 l 0.58789,-6.75782 -0.0488,-9.55078 -0.7832,-4.70117 -2.10547,-7.19922 -3.52734,-9.25586 -4.45508,-7.24804 -3.03711,-3.77149 -6.70898,-6.36523 -5.38868,-4.60352 -7.05078,-3.86914 -7.05273,-3.03711 -8.58115,-2.55484 c 0,0 -2.31317,-1.09942 -7.18252,-1.16391 -15.96519,-0.21144 -49.1055,-0.0703 -49.1055,-0.0703 z m 38.47851,6.90039 c 4.67091,0.0952 9.10712,0.3479 12.63477,0.85547 3.00098,0.43179 5.86619,1.55916 8.72656,2.56445 2.51986,0.88562 5.01052,1.87395 7.41016,3.04688 2.67555,1.30779 5.31451,2.73089 7.75781,4.43359 2.1511,1.49908 4.13366,3.2412 6.02539,5.05664 2.29922,2.20649 4.57473,4.48172 6.44141,7.06445 1.48954,2.06094 2.66919,4.34213 3.74023,6.64844 1.39076,2.99476 2.58177,6.09905 3.46289,9.28125 0.67666,2.44379 1.06826,4.96261 1.38477,7.47852 0.41758,3.31936 0.83303,6.67193 0.67383,10.01367 -0.13406,2.81381 -0.77836,5.58507 -1.36719,8.33984 -0.6789,3.17616 -1.35005,6.37946 -2.49219,9.41992 -0.9694,2.58062 -2.1755,5.09495 -3.67187,7.41016 -1.81637,2.8103 -4.05041,5.34713 -6.3711,7.75781 -2.8468,2.9572 -5.80769,5.87684 -9.21094,8.17188 -3.14154,2.11856 -6.65574,3.66896 -10.18164,5.05664 -3.31695,1.30545 -6.74007,2.42493 -10.25,3.04687 -2.20925,0.39148 -4.47614,0.34673 -6.71875,0.41602 -11.72234,0.3622 -35.18359,0 -35.18359,0 l -2.9082,-0.0508 -0.0352,-0.39844 V 198.98047 c 0,0 16.12008,-1.14098 30.13281,-0.85547 z"
       sodipodi:nodetypes="sccccccccscscccccccccccccscsssssssssssssssssssccccsss" />
    <path
       id="path17"
       style="display:inline;fill:#ee9041;fill-opacity:1;stroke-width:1.75748;stroke-dasharray:10.5449, 3.51496"
       d="m 588.01367,223.01562 c -2.98157,0.18774 -5.97146,0.57404 -8.86523,1.31641 -5.34179,1.37038 -15.51367,5.74805 -15.51367,5.74805 l 2.97656,6.99609 c 0,0 3.16446,-1.34934 4.77929,-1.93945 3.07891,-1.12514 6.19794,-2.14739 9.34961,-3.04883 1.85228,-0.52979 1.2579,-0.55881 5.61133,-1.38477 2.71536,-0.51518 4.82649,-0.19567 7.23901,-0.13068 2.20909,0.0595 4.33117,0.31826 6.61255,0.47639 2.19347,0.15204 2.33749,0.15116 4.57032,0.625 2.76068,0.58586 2.15835,0.40798 4.29492,1.45312 3.49466,1.70947 5.6081,2.66115 7.61914,4.91797 1.86254,2.09017 4.08594,5.40235 4.08594,5.40235 0,0 2.06792,4.46347 2.50527,6.85742 0.67632,3.70198 0.12559,11.28906 0.12559,11.28906 l -6.78711,-1.45508 -5.05469,-1.03906 c 0,0 -4.36479,-0.69141 -4.84961,-0.69141 -0.48482,0 -9.2793,-0.34765 -9.2793,-0.34765 l -4.7796,0.001 -6.30243,0.3463 c 0,0 -3.99838,0.23608 -5.95703,0.62305 -2.00648,0.39642 -3.99029,0.96453 -5.88672,1.73047 -2.63288,1.06339 -7.54883,3.94726 -7.54883,3.94726 0,0 -3.99181,2.93168 -5.61132,4.7793 -1.23271,1.40634 -2.20955,3.03874 -3.04688,4.71094 -1.10213,2.20102 -2.15278,4.49857 -2.5625,6.92578 -0.5765,3.41526 -0.17372,6.94608 0.20703,10.38867 0.17871,1.61578 0.31754,2.51317 0.97071,4.7793 0.45595,1.5819 4.29296,6.09375 4.29296,6.09375 0,0 4.36846,5.08006 7.27344,6.58008 3.11226,1.60705 4.36246,2.0882 7.06446,3.04687 1.94727,0.69089 3.97905,1.1693 6.02539,1.45508 2.81486,0.3931 8.51953,0.3457 8.51953,0.3457 l 8.24218,-0.3457 6.64844,-1.80078 5.90033,-2.77973 6.49616,-4.63043 5.19531,-5.67969 1.3164,-1.10937 -0.13867,14.96094 h 7.6875 c 0,0 -0.0846,-19.71651 0,-29.57422 0.0693,-8.08097 0.7531,-16.166 0.41602,-24.24024 -0.11518,-2.75895 -0.39325,-5.51591 -0.83203,-8.24218 -0.27054,-1.68098 -0.58424,-3.3661 -1.10742,-4.98633 -0.73491,-2.2759 -1.69924,-4.48621 -2.83448,-6.59121 -0.83786,-1.5536 -1.7516,-3.0935 -2.91552,-4.42051 -1.65103,-1.88237 -3.62954,-3.47779 -5.67774,-4.91797 -1.92785,-1.35555 -4.01924,-2.48623 -6.16406,-3.46289 -1.80926,-0.82386 -3.68161,-1.55052 -5.61711,-2.0044 -1.92188,-0.45069 -3.91172,-0.55912 -5.88094,-0.69677 -4.26144,-0.29787 -8.54911,-0.54581 -12.8125,-0.27735 z m 10.64258,42.32422 c 2.61724,0.0674 5.23654,0.22667 7.83594,0.53907 3.43736,0.41311 6.84528,1.06592 10.23633,1.76367 2.40063,0.49396 7.15039,1.71289 7.15039,1.71289 0,0 0.39474,7.11907 0.29297,10.67773 -0.0497,1.73593 -0.0629,3.49652 -0.44141,5.19141 -0.20487,0.91745 -0.57935,1.79344 -0.97852,2.64453 -1.05584,2.25119 -2.29449,4.2569 -3.8206,6.21997 -1.53754,1.97778 -3.4596,3.73565 -5.38672,5.33624 -2.53765,2.10768 -4.86306,3.26218 -7.44437,4.31025 -3.53055,1.43348 -6.93698,2.28359 -10.72526,2.69409 -2.01247,0.21807 -4.04941,0.0751 -6.07227,0 -1.97937,-0.0735 -3.96006,-0.19797 -5.92578,-0.44141 -1.51285,-0.18736 -3.04129,-0.36028 -4.50586,-0.7832 -1.52617,-0.44071 -3.0211,-1.03831 -4.4082,-1.8125 -1.47981,-0.82593 -2.77174,-1.95083 -4.11328,-2.98633 -1.01926,-0.78674 -2.14036,-1.47856 -2.98633,-2.44922 -1.00622,-1.15453 -1.70992,-2.55098 -2.40039,-3.91797 -0.50843,-1.00658 -0.9418,-1.61474 -1.27344,-3.13476 -0.33414,-1.53147 -0.10165,-3.13368 -0.0976,-4.70118 0.002,-0.62055 -0.0334,-1.24624 0.0488,-1.86132 0.19152,-1.43242 0.471,-2.87716 1.02735,-4.21094 1.03258,-2.47549 2.39922,-4.88135 4.21289,-6.85742 1.57854,-1.71988 3.61015,-2.99313 5.63086,-4.16211 2.22101,-1.28485 4.21274,-2.37769 6.70643,-2.98205 2.76608,-0.67038 6.26634,-0.73457 9.1102,-0.84878 2.85493,-0.11462 5.47162,-0.0143 8.3279,0.0593 z"
       sodipodi:nodetypes="aaccaasasssscacccscccaacaaaascssacccccccccaaaaaaaaaaassscssssssssssssssssssssssss" />
    <path
       style="display:inline;fill:#ee9041;fill-opacity:1;stroke-width:1.75748;stroke-dasharray:10.5449, 3.51496"
       d="m 654.77956,230.28792 0.0693,-6.16409 12.74376,-0.0692 0.31321,-28.08559 7.34608,0.17141 0.12243,28.06204 h 30.53522 v 6.6742 H 675.8345 c 0,0 -0.36859,38.47215 0,63.2605 0.0147,0.98703 0.44318,1.93559 0.83765,2.84048 0.44752,1.02657 1.00738,2.02073 1.71409,2.88946 0.80939,0.99496 1.83922,1.79403 2.84048,2.59562 1.13484,0.90853 2.23501,1.93423 3.57509,2.49767 1.05662,0.44426 2.24614,0.46349 3.3792,0.63666 1.38112,0.21109 2.76671,0.43453 4.16278,0.48973 1.71399,0.0678 3.43069,-0.0824 5.14226,-0.19589 1.21076,-0.0803 2.43917,-0.0813 3.62407,-0.34282 1.09912,-0.24256 2.11593,-0.76914 3.1833,-1.1264 0.61689,-0.20648 1.86101,-0.58768 1.86101,-0.58768 v 7.44403 c 0,0 -2.30625,0.75903 -3.47715,1.07742 -1.5857,0.43118 -3.16921,0.91968 -4.79944,1.1264 -2.98057,0.37794 -6.0108,0.35178 -9.01119,0.1959 -1.69249,-0.0879 -3.40071,-0.22334 -5.04431,-0.63666 -1.76409,-0.44361 -3.48879,-1.10201 -5.09329,-1.95896 -1.84971,-0.98791 -3.69391,-2.10759 -5.14225,-3.62407 -1.40436,-1.47042 -2.37164,-3.32374 -3.28125,-5.14225 -0.97526,-1.94975 -2.2683,-3.94194 -2.30178,-6.12174 -0.36155,-23.5406 -0.38093,-65.0702 -0.38093,-65.0702 l -12.91548,-0.13852 z"
       id="path18"
       sodipodi:nodetypes="cccccccccsaaaaaaaaaccaaaaaaasccc" />
    <path
       id="path19"
       style="display:inline;fill:#ee9041;fill-opacity:1;stroke-width:1.75748;stroke-dasharray:10.5449, 3.51496"
       d="m 758.01367,223.01562 c -2.98157,0.18774 -5.97146,0.57404 -8.86523,1.31641 -5.34179,1.37038 -15.51367,5.74805 -15.51367,5.74805 l 2.97656,6.99609 c 0,0 3.16446,-1.34934 4.77929,-1.93945 3.07891,-1.12514 6.19794,-2.14739 9.34961,-3.04883 1.85228,-0.52979 1.2579,-0.55881 5.61133,-1.38477 2.71536,-0.51518 4.82649,-0.19567 7.23901,-0.13068 2.20909,0.0595 4.33117,0.31826 6.61255,0.47639 2.19347,0.15204 2.33749,0.15116 4.57032,0.625 2.76068,0.58586 2.15835,0.40798 4.29492,1.45312 3.49466,1.70947 5.6081,2.66115 7.61914,4.91797 1.86254,2.09017 4.08594,5.40235 4.08594,5.40235 0,0 2.06792,4.46347 2.50527,6.85742 0.67632,3.70198 0.12559,11.28906 0.12559,11.28906 l -6.78711,-1.45508 -5.05469,-1.03906 c 0,0 -4.36479,-0.69141 -4.84961,-0.69141 -0.48482,0 -9.2793,-0.34765 -9.2793,-0.34765 l -4.7796,0.001 -6.30243,0.3463 c 0,0 -3.99838,0.23608 -5.95703,0.62305 -2.00648,0.39642 -3.99029,0.96453 -5.88672,1.73047 -2.63288,1.06339 -7.54883,3.94726 -7.54883,3.94726 0,0 -3.99181,2.93168 -5.61132,4.7793 -1.23271,1.40634 -2.20955,3.03874 -3.04688,4.71094 -1.10213,2.20102 -2.15278,4.49857 -2.5625,6.92578 -0.5765,3.41526 -0.17372,6.94608 0.20703,10.38867 0.17871,1.61578 0.31754,2.51317 0.97071,4.7793 0.45595,1.5819 4.29296,6.09375 4.29296,6.09375 0,0 4.36846,5.08006 7.27344,6.58008 3.11226,1.60705 4.36246,2.0882 7.06446,3.04687 1.94727,0.69089 3.97905,1.1693 6.02539,1.45508 2.81486,0.3931 8.51953,0.3457 8.51953,0.3457 l 8.24218,-0.3457 6.64844,-1.80078 5.90033,-2.77973 6.49616,-4.63043 5.19531,-5.67969 1.3164,-1.10937 -0.13867,14.96094 h 7.6875 c 0,0 -0.0846,-19.71651 0,-29.57422 0.0693,-8.08097 0.7531,-16.166 0.41602,-24.24024 -0.11518,-2.75895 -0.39325,-5.51591 -0.83203,-8.24218 -0.27054,-1.68098 -0.58424,-3.3661 -1.10742,-4.98633 -0.73491,-2.2759 -1.69924,-4.48621 -2.83448,-6.59121 -0.83786,-1.5536 -1.7516,-3.0935 -2.91552,-4.42051 -1.65103,-1.88237 -3.62954,-3.47779 -5.67774,-4.91797 -1.92785,-1.35555 -4.01924,-2.48623 -6.16406,-3.46289 -1.80926,-0.82386 -3.68161,-1.55052 -5.61711,-2.0044 -1.92188,-0.45069 -3.91172,-0.55912 -5.88094,-0.69677 -4.26144,-0.29787 -8.54911,-0.54581 -12.8125,-0.27735 z m 10.64258,42.32422 c 2.61724,0.0674 5.23654,0.22667 7.83594,0.53907 3.43736,0.41311 6.84528,1.06592 10.23633,1.76367 2.40063,0.49396 7.15039,1.71289 7.15039,1.71289 0,0 0.39474,7.11907 0.29297,10.67773 -0.0497,1.73593 -0.0629,3.49652 -0.44141,5.19141 -0.20487,0.91745 -0.57935,1.79344 -0.97852,2.64453 -1.05584,2.25119 -2.29449,4.2569 -3.8206,6.21997 -1.53754,1.97778 -3.4596,3.73565 -5.38672,5.33624 -2.53765,2.10768 -4.86306,3.26218 -7.44437,4.31025 -3.53055,1.43348 -6.93698,2.28359 -10.72526,2.69409 -2.01247,0.21807 -4.04941,0.0751 -6.07227,0 -1.97937,-0.0735 -3.96006,-0.19797 -5.92578,-0.44141 -1.51285,-0.18736 -3.04129,-0.36028 -4.50586,-0.7832 -1.52617,-0.44071 -3.0211,-1.03831 -4.4082,-1.8125 -1.47981,-0.82593 -2.77174,-1.95083 -4.11328,-2.98633 -1.01926,-0.78674 -2.14036,-1.47856 -2.98633,-2.44922 -1.00622,-1.15453 -1.70992,-2.55098 -2.40039,-3.91797 -0.50843,-1.00658 -0.9418,-1.61474 -1.27344,-3.13476 -0.33414,-1.53147 -0.10165,-3.13368 -0.0976,-4.70118 0.002,-0.62055 -0.0334,-1.24624 0.0488,-1.86132 0.19152,-1.43242 0.471,-2.87716 1.02735,-4.21094 1.03258,-2.47549 2.39922,-4.88135 4.21289,-6.85742 1.57854,-1.71988 3.61015,-2.99313 5.63086,-4.16211 2.22101,-1.28485 4.21274,-2.37769 6.70643,-2.98205 2.76608,-0.67038 6.26634,-0.73457 9.1102,-0.84878 2.85493,-0.11462 5.47162,-0.0143 8.3279,0.0593 z"
       sodipodi:nodetypes="aaccaasasssscacccscccaacaaaascssacccccccccaaaaaaaaaaassscssssssssssssssssssssssss" />
  </g>
</svg>
